<svg id="SvgjsSvg1006" width="778" height="464" xmlns="http://www.w3.org/2000/svg" version="1.1" xmlns:xlink="http://www.w3.org/1999/xlink" xmlns:svgjs="http://svgjs.com/svgjs"><defs id="SvgjsDefs1007"><marker id="SvgjsMarker1064" markerWidth="16" markerHeight="12" refX="0" refY="6" viewBox="0 0 16 12" orient="auto" markerUnits="userSpaceOnUse"><path id="SvgjsPath1065" d="M15,1.5 L2,6 L15,10.5" fill="#323232" stroke="#323232" stroke-width="2"></path></marker><marker id="SvgjsMarker1066" markerWidth="16" markerHeight="12" refX="16" refY="6" viewBox="0 0 16 12" orient="auto" markerUnits="userSpaceOnUse"><path id="SvgjsPath1067" d="M0,2 L14,6 L0,11 L0,2" fill="#323232" stroke="#323232" stroke-width="2"></path></marker><marker id="SvgjsMarker1070" markerWidth="16" markerHeight="12" refX="0" refY="6" viewBox="0 0 16 12" orient="auto" markerUnits="userSpaceOnUse"><path id="SvgjsPath1071" d="M15,1.5 L2,6 L15,10.5" fill="#323232" stroke="#323232" stroke-width="2"></path></marker><marker id="SvgjsMarker1072" markerWidth="16" markerHeight="12" refX="16" refY="6" viewBox="0 0 16 12" orient="auto" markerUnits="userSpaceOnUse"><path id="SvgjsPath1073" d="M0,2 L14,6 L0,11 L0,2" fill="#323232" stroke="#323232" stroke-width="2"></path></marker><marker id="SvgjsMarker1076" markerWidth="16" markerHeight="12" refX="0" refY="6" viewBox="0 0 16 12" orient="auto" markerUnits="userSpaceOnUse"><path id="SvgjsPath1077" d="M15,1.5 L2,6 L15,10.5" fill="#323232" stroke="#323232" stroke-width="2"></path></marker><marker id="SvgjsMarker1078" markerWidth="16" markerHeight="12" refX="16" refY="6" viewBox="0 0 16 12" orient="auto" markerUnits="userSpaceOnUse"><path id="SvgjsPath1079" d="M0,2 L14,6 L0,11 L0,2" fill="#323232" stroke="#323232" stroke-width="2"></path></marker><marker id="SvgjsMarker1082" markerWidth="16" markerHeight="12" refX="0" refY="6" viewBox="0 0 16 12" orient="auto" markerUnits="userSpaceOnUse"><path id="SvgjsPath1083" d="M15,1.5 L2,6 L15,10.5" fill="#323232" stroke="#323232" stroke-width="2"></path></marker><marker id="SvgjsMarker1084" markerWidth="16" markerHeight="12" refX="16" refY="6" viewBox="0 0 16 12" orient="auto" markerUnits="userSpaceOnUse"><path id="SvgjsPath1085" d="M0,2 L14,6 L0,11 L0,2" fill="#323232" stroke="#323232" stroke-width="2"></path></marker><marker id="SvgjsMarker1088" markerWidth="16" markerHeight="12" refX="0" refY="6" viewBox="0 0 16 12" orient="auto" markerUnits="userSpaceOnUse"><path id="SvgjsPath1089" d="M15,1.5 L2,6 L15,10.5" fill="#323232" stroke="#323232" stroke-width="2"></path></marker><marker id="SvgjsMarker1090" markerWidth="16" markerHeight="12" refX="16" refY="6" viewBox="0 0 16 12" orient="auto" markerUnits="userSpaceOnUse"><path id="SvgjsPath1091" d="M0,2 L14,6 L0,11 L0,2" fill="#323232" stroke="#323232" stroke-width="2"></path></marker><marker id="SvgjsMarker1094" markerWidth="16" markerHeight="12" refX="0" refY="6" viewBox="0 0 16 12" orient="auto" markerUnits="userSpaceOnUse"><path id="SvgjsPath1095" d="M15,1.5 L2,6 L15,10.5" fill="#323232" stroke="#323232" stroke-width="2"></path></marker><marker id="SvgjsMarker1096" markerWidth="16" markerHeight="12" refX="16" refY="6" viewBox="0 0 16 12" orient="auto" markerUnits="userSpaceOnUse"><path id="SvgjsPath1097" d="M0,2 L14,6 L0,11 L0,2" fill="#323232" stroke="#323232" stroke-width="2"></path></marker><marker id="SvgjsMarker1136" markerWidth="16" markerHeight="12" refX="0" refY="6" viewBox="0 0 16 12" orient="auto" markerUnits="userSpaceOnUse"><path id="SvgjsPath1137" d="M15,1.5 L2,6 L15,10.5" fill="#323232" stroke="#323232" stroke-width="2"></path></marker><marker id="SvgjsMarker1138" markerWidth="16" markerHeight="12" refX="16" refY="6" viewBox="0 0 16 12" orient="auto" markerUnits="userSpaceOnUse"><path id="SvgjsPath1139" d="M0,2 L14,6 L0,11 L0,2" fill="#323232" stroke="#323232" stroke-width="2"></path></marker><marker id="SvgjsMarker1142" markerWidth="16" markerHeight="12" refX="0" refY="6" viewBox="0 0 16 12" orient="auto" markerUnits="userSpaceOnUse"><path id="SvgjsPath1143" d="M15,1.5 L2,6 L15,10.5" fill="#323232" stroke="#323232" stroke-width="2"></path></marker><marker id="SvgjsMarker1144" markerWidth="16" markerHeight="12" refX="16" refY="6" viewBox="0 0 16 12" orient="auto" markerUnits="userSpaceOnUse"><path id="SvgjsPath1145" d="M0,2 L14,6 L0,11 L0,2" fill="#323232" stroke="#323232" stroke-width="2"></path></marker><marker id="SvgjsMarker1148" markerWidth="16" markerHeight="12" refX="0" refY="6" viewBox="0 0 16 12" orient="auto" markerUnits="userSpaceOnUse"><path id="SvgjsPath1149" d="M15,1.5 L2,6 L15,10.5" fill="#323232" stroke="#323232" stroke-width="2"></path></marker><marker id="SvgjsMarker1150" markerWidth="16" markerHeight="12" refX="16" refY="6" viewBox="0 0 16 12" orient="auto" markerUnits="userSpaceOnUse"><path id="SvgjsPath1151" d="M0,2 L14,6 L0,11 L0,2" fill="#323232" stroke="#323232" stroke-width="2"></path></marker><marker id="SvgjsMarker1154" markerWidth="16" markerHeight="12" refX="0" refY="6" viewBox="0 0 16 12" orient="auto" markerUnits="userSpaceOnUse"><path id="SvgjsPath1155" d="M15,1.5 L2,6 L15,10.5" fill="#323232" stroke="#323232" stroke-width="2"></path></marker><marker id="SvgjsMarker1156" markerWidth="16" markerHeight="12" refX="16" refY="6" viewBox="0 0 16 12" orient="auto" markerUnits="userSpaceOnUse"><path id="SvgjsPath1157" d="M0,2 L14,6 L0,11 L0,2" fill="#323232" stroke="#323232" stroke-width="2"></path></marker><marker id="SvgjsMarker1160" markerWidth="16" markerHeight="12" refX="0" refY="6" viewBox="0 0 16 12" orient="auto" markerUnits="userSpaceOnUse"><path id="SvgjsPath1161" d="M15,1.5 L2,6 L15,10.5" fill="#323232" stroke="#323232" stroke-width="2"></path></marker><marker id="SvgjsMarker1162" markerWidth="16" markerHeight="12" refX="16" refY="6" viewBox="0 0 16 12" orient="auto" markerUnits="userSpaceOnUse"><path id="SvgjsPath1163" d="M0,2 L14,6 L0,11 L0,2" fill="#323232" stroke="#323232" stroke-width="2"></path></marker><marker id="SvgjsMarker1166" markerWidth="16" markerHeight="12" refX="0" refY="6" viewBox="0 0 16 12" orient="auto" markerUnits="userSpaceOnUse"><path id="SvgjsPath1167" d="M15,1.5 L2,6 L15,10.5" fill="#323232" stroke="#323232" stroke-width="2"></path></marker><marker id="SvgjsMarker1168" markerWidth="16" markerHeight="12" refX="16" refY="6" viewBox="0 0 16 12" orient="auto" markerUnits="userSpaceOnUse"><path id="SvgjsPath1169" d="M0,2 L14,6 L0,11 L0,2" fill="#323232" stroke="#323232" stroke-width="2"></path></marker><marker id="SvgjsMarker1190" markerWidth="16" markerHeight="12" refX="0" refY="6" viewBox="0 0 16 12" orient="auto" markerUnits="userSpaceOnUse"><path id="SvgjsPath1191" d="M15,1.5 L2,6 L15,10.5" fill="#323232" stroke="#323232" stroke-width="2"></path></marker><marker id="SvgjsMarker1192" markerWidth="16" markerHeight="12" refX="16" refY="6" viewBox="0 0 16 12" orient="auto" markerUnits="userSpaceOnUse"><path id="SvgjsPath1193" d="M0,2 L14,6 L0,11 L0,2" fill="#323232" stroke="#323232" stroke-width="2"></path></marker><marker id="SvgjsMarker1196" markerWidth="16" markerHeight="12" refX="0" refY="6" viewBox="0 0 16 12" orient="auto" markerUnits="userSpaceOnUse"><path id="SvgjsPath1197" d="M15,1.5 L2,6 L15,10.5" fill="#323232" stroke="#323232" stroke-width="2"></path></marker><marker id="SvgjsMarker1198" markerWidth="16" markerHeight="12" refX="16" refY="6" viewBox="0 0 16 12" orient="auto" markerUnits="userSpaceOnUse"><path id="SvgjsPath1199" d="M0,2 L14,6 L0,11 L0,2" fill="#323232" stroke="#323232" stroke-width="2"></path></marker><marker id="SvgjsMarker1202" markerWidth="16" markerHeight="12" refX="0" refY="6" viewBox="0 0 16 12" orient="auto" markerUnits="userSpaceOnUse"><path id="SvgjsPath1203" d="M15,1.5 L2,6 L15,10.5" fill="#323232" stroke="#323232" stroke-width="2"></path></marker><marker id="SvgjsMarker1204" markerWidth="16" markerHeight="12" refX="16" refY="6" viewBox="0 0 16 12" orient="auto" markerUnits="userSpaceOnUse"><path id="SvgjsPath1205" d="M0,2 L14,6 L0,11 L0,2" fill="#323232" stroke="#323232" stroke-width="2"></path></marker></defs><g id="SvgjsG1008" transform="translate(172,199)"><path id="SvgjsPath1009" d="M 0 0L 155 0L 155 117L 0 117Z" stroke-dasharray="3,4" stroke="#b8b8b8" stroke-width="2" fill-opacity="1" fill="#ffffff"></path><g id="SvgjsG1010"><text id="SvgjsText1011" font-family="微软雅黑" text-anchor="middle" font-size="13px" width="0" fill="#323232" font-weight="400" align="middle" anchor="middle" family="微软雅黑" size="13px" weight="400" font-style="" y="48.55" transform="rotate(0)"></text></g></g><g id="SvgjsG1012" transform="translate(212,247)"><path id="SvgjsPath1013" d="M 0 0L 75 0L 75 53L 0 53Z" stroke="#323232" stroke-width="2" fill-opacity="1" fill="#99ff99"></path><g id="SvgjsG1014"><text id="SvgjsText1015" font-family="微软雅黑" text-anchor="middle" font-size="13px" width="38" fill="#323232" font-weight="400" align="middle" anchor="middle" family="微软雅黑" size="13px" weight="400" font-style="" y="8.55" transform="rotate(0)"><tspan id="SvgjsTspan1016" dy="16" x="37.5"><tspan id="SvgjsTspan1017" style="text-decoration:;">Proxy </tspan></tspan><tspan id="SvgjsTspan1018" dy="16" x="37.5"><tspan id="SvgjsTspan1019" style="text-decoration:;">Server</tspan></tspan></text></g></g><g id="SvgjsG1020" transform="translate(172,199)"><path id="SvgjsPath1021" d="M 0 0L 98 0L 98 36L 0 36Z" stroke="none" fill="none"></path><g id="SvgjsG1022"><text id="SvgjsText1023" font-family="微软雅黑" text-anchor="middle" font-size="13px" width="65" fill="#323232" font-weight="400" align="middle" anchor="middle" family="微软雅黑" size="13px" weight="400" font-style="" y="8.05" transform="rotate(0)"><tspan id="SvgjsTspan1024" dy="16" x="49"><tspan id="SvgjsTspan1025" style="text-decoration:;">公网服务器</tspan></tspan></text></g></g><g id="SvgjsG1026" transform="translate(442,25)"><path id="SvgjsPath1027" d="M 0 0L 311 0L 311 192L 0 192Z" stroke-dasharray="3,4" stroke="#b8b8b8" stroke-width="2" fill-opacity="1" fill="#ffffff"></path><g id="SvgjsG1028"><text id="SvgjsText1029" font-family="微软雅黑" text-anchor="middle" font-size="13px" width="0" fill="#323232" font-weight="400" align="middle" anchor="middle" family="微软雅黑" size="13px" weight="400" font-style="" y="86.05" transform="rotate(0)"></text></g></g><g id="SvgjsG1030" transform="translate(469,106)"><path id="SvgjsPath1031" d="M 0 0L 75 0L 75 53L 0 53Z" stroke="#323232" stroke-width="2" fill-opacity="1" fill="#99ff99"></path><g id="SvgjsG1032"><text id="SvgjsText1033" font-family="微软雅黑" text-anchor="middle" font-size="13px" width="40" fill="#323232" font-weight="400" align="middle" anchor="middle" family="微软雅黑" size="13px" weight="400" font-style="" y="8.55" transform="rotate(0)"><tspan id="SvgjsTspan1034" dy="16" x="37.5"><tspan id="SvgjsTspan1035" style="text-decoration:;">Proxy </tspan></tspan><tspan id="SvgjsTspan1036" dy="16" x="37.5"><tspan id="SvgjsTspan1037" style="text-decoration:;">Client1</tspan></tspan></text></g></g><g id="SvgjsG1038" transform="translate(450.5,25)"><path id="SvgjsPath1039" d="M 0 0L 98 0L 98 36L 0 36Z" stroke="none" fill="none"></path><g id="SvgjsG1040"><text id="SvgjsText1041" font-family="微软雅黑" text-anchor="middle" font-size="13px" width="70" fill="#323232" font-weight="400" align="middle" anchor="middle" family="微软雅黑" size="13px" weight="400" font-style="" y="8.05" transform="rotate(0)"><tspan id="SvgjsTspan1042" dy="16" x="49"><tspan id="SvgjsTspan1043" style="text-decoration:;">内网服务器1</tspan></tspan></text></g></g><g id="SvgjsG1044" transform="translate(635,65)"><path id="SvgjsPath1045" d="M 0 0L 103 0L 103 35L 0 35Z" stroke="#323232" stroke-width="2" fill-opacity="1" fill="#cce5ff"></path><g id="SvgjsG1046"><text id="SvgjsText1047" font-family="微软雅黑" text-anchor="middle" font-size="13px" width="69" fill="#323232" font-weight="400" align="middle" anchor="middle" family="微软雅黑" size="13px" weight="400" font-style="" y="7.55" transform="rotate(0)"><tspan id="SvgjsTspan1048" dy="16" x="51.5"><tspan id="SvgjsTspan1049" style="text-decoration:;">Real Server</tspan></tspan></text></g></g><g id="SvgjsG1050" transform="translate(635,118.5)"><path id="SvgjsPath1051" d="M 0 0L 103 0L 103 36L 0 36Z" stroke="#323232" stroke-width="2" fill-opacity="1" fill="#cce5ff"></path><g id="SvgjsG1052"><text id="SvgjsText1053" font-family="微软雅黑" text-anchor="middle" font-size="13px" width="69" fill="#323232" font-weight="400" align="middle" anchor="middle" family="微软雅黑" size="13px" weight="400" font-style="" y="8.05" transform="rotate(0)"><tspan id="SvgjsTspan1054" dy="16" x="51.5"><tspan id="SvgjsTspan1055" style="text-decoration:;">Real Server</tspan></tspan></text></g></g><g id="SvgjsG1056" transform="translate(635,175)"><path id="SvgjsPath1057" d="M 0 0L 103 0L 103 30L 0 30Z" stroke="#323232" stroke-width="2" fill-opacity="1" fill="#cce5ff"></path><g id="SvgjsG1058"><text id="SvgjsText1059" font-family="微软雅黑" text-anchor="middle" font-size="13px" width="69" fill="#323232" font-weight="400" align="middle" anchor="middle" family="微软雅黑" size="13px" weight="400" font-style="" y="5.05" transform="rotate(0)"><tspan id="SvgjsTspan1060" dy="16" x="51.5"><tspan id="SvgjsTspan1061" style="text-decoration:;">Real Server</tspan></tspan></text></g></g><g id="SvgjsG1062"><path id="SvgjsPath1063" d="M287 273.5C 322 236 405 136 469 132.5" stroke="#323232" stroke-width="2" fill="none" marker-start="url(#SvgjsMarker1064)" marker-end="url(#SvgjsMarker1066)"></path></g><g id="SvgjsG1068"><path id="SvgjsPath1069" d="M544 132.5L635 82.5" stroke="#323232" stroke-width="2" fill="none" marker-start="url(#SvgjsMarker1070)" marker-end="url(#SvgjsMarker1072)"></path></g><g id="SvgjsG1074"><path id="SvgjsPath1075" d="M544 132.5L635 136.5" stroke="#323232" stroke-width="2" fill="none" marker-start="url(#SvgjsMarker1076)" marker-end="url(#SvgjsMarker1078)"></path></g><g id="SvgjsG1080"><path id="SvgjsPath1081" d="M544 132.5L635 190" stroke="#323232" stroke-width="2" fill="none" marker-start="url(#SvgjsMarker1082)" marker-end="url(#SvgjsMarker1084)"></path></g><g id="SvgjsG1086"><path id="SvgjsPath1087" d="M287 273.5L469 132.5" stroke="#323232" stroke-width="2" fill="none" marker-start="url(#SvgjsMarker1088)" marker-end="url(#SvgjsMarker1090)"></path></g><g id="SvgjsG1092"><path id="SvgjsPath1093" d="M287 273.5C 363 254 445 178 469 132.5" stroke="#323232" stroke-width="2" fill="none" marker-start="url(#SvgjsMarker1094)" marker-end="url(#SvgjsMarker1096)"></path></g><g id="SvgjsG1098" transform="translate(442,247)"><path id="SvgjsPath1099" d="M 0 0L 311 0L 311 192L 0 192Z" stroke-dasharray="3,4" stroke="#b8b8b8" stroke-width="2" fill-opacity="1" fill="#ffffff"></path><g id="SvgjsG1100"><text id="SvgjsText1101" font-family="微软雅黑" text-anchor="middle" font-size="13px" width="0" fill="#323232" font-weight="400" align="middle" anchor="middle" family="微软雅黑" size="13px" weight="400" font-style="" y="86.05" transform="rotate(0)"></text></g></g><g id="SvgjsG1102" transform="translate(469,328)"><path id="SvgjsPath1103" d="M 0 0L 75 0L 75 53L 0 53Z" stroke="#323232" stroke-width="2" fill-opacity="1" fill="#99ff99"></path><g id="SvgjsG1104"><text id="SvgjsText1105" font-family="微软雅黑" text-anchor="middle" font-size="13px" width="43" fill="#323232" font-weight="400" align="middle" anchor="middle" family="微软雅黑" size="13px" weight="400" font-style="" y="8.55" transform="rotate(0)"><tspan id="SvgjsTspan1106" dy="16" x="37.5"><tspan id="SvgjsTspan1107" style="text-decoration:;">Proxy </tspan></tspan><tspan id="SvgjsTspan1108" dy="16" x="37.5"><tspan id="SvgjsTspan1109" style="text-decoration:;">Client2</tspan></tspan></text></g></g><g id="SvgjsG1110" transform="translate(450.5,247)"><path id="SvgjsPath1111" d="M 0 0L 98 0L 98 36L 0 36Z" stroke="none" fill="none"></path><g id="SvgjsG1112"><text id="SvgjsText1113" font-family="微软雅黑" text-anchor="middle" font-size="13px" width="73" fill="#323232" font-weight="400" align="middle" anchor="middle" family="微软雅黑" size="13px" weight="400" font-style="" y="8.05" transform="rotate(0)"><tspan id="SvgjsTspan1114" dy="16" x="49"><tspan id="SvgjsTspan1115" style="text-decoration:;">内网服务器2</tspan></tspan></text></g></g><g id="SvgjsG1116" transform="translate(635,287)"><path id="SvgjsPath1117" d="M 0 0L 103 0L 103 35L 0 35Z" stroke="#323232" stroke-width="2" fill-opacity="1" fill="#cce5ff"></path><g id="SvgjsG1118"><text id="SvgjsText1119" font-family="微软雅黑" text-anchor="middle" font-size="13px" width="69" fill="#323232" font-weight="400" align="middle" anchor="middle" family="微软雅黑" size="13px" weight="400" font-style="" y="7.55" transform="rotate(0)"><tspan id="SvgjsTspan1120" dy="16" x="51.5"><tspan id="SvgjsTspan1121" style="text-decoration:;">Real Server</tspan></tspan></text></g></g><g id="SvgjsG1122" transform="translate(635,340.5)"><path id="SvgjsPath1123" d="M 0 0L 103 0L 103 36L 0 36Z" stroke="#323232" stroke-width="2" fill-opacity="1" fill="#cce5ff"></path><g id="SvgjsG1124"><text id="SvgjsText1125" font-family="微软雅黑" text-anchor="middle" font-size="13px" width="69" fill="#323232" font-weight="400" align="middle" anchor="middle" family="微软雅黑" size="13px" weight="400" font-style="" y="8.05" transform="rotate(0)"><tspan id="SvgjsTspan1126" dy="16" x="51.5"><tspan id="SvgjsTspan1127" style="text-decoration:;">Real Server</tspan></tspan></text></g></g><g id="SvgjsG1128" transform="translate(635,397)"><path id="SvgjsPath1129" d="M 0 0L 103 0L 103 30L 0 30Z" stroke="#323232" stroke-width="2" fill-opacity="1" fill="#cce5ff"></path><g id="SvgjsG1130"><text id="SvgjsText1131" font-family="微软雅黑" text-anchor="middle" font-size="13px" width="69" fill="#323232" font-weight="400" align="middle" anchor="middle" family="微软雅黑" size="13px" weight="400" font-style="" y="5.05" transform="rotate(0)"><tspan id="SvgjsTspan1132" dy="16" x="51.5"><tspan id="SvgjsTspan1133" style="text-decoration:;">Real Server</tspan></tspan></text></g></g><g id="SvgjsG1134"><path id="SvgjsPath1135" d="M544 354.5L635 304.5" stroke="#323232" stroke-width="2" fill="none" marker-start="url(#SvgjsMarker1136)" marker-end="url(#SvgjsMarker1138)"></path></g><g id="SvgjsG1140"><path id="SvgjsPath1141" d="M544 354.5L635 358.5" stroke="#323232" stroke-width="2" fill="none" marker-start="url(#SvgjsMarker1142)" marker-end="url(#SvgjsMarker1144)"></path></g><g id="SvgjsG1146"><path id="SvgjsPath1147" d="M544 354.5L635 412" stroke="#323232" stroke-width="2" fill="none" marker-start="url(#SvgjsMarker1148)" marker-end="url(#SvgjsMarker1150)"></path></g><g id="SvgjsG1152"><path id="SvgjsPath1153" d="M287 273.5C 403 283 410 317 469 354.5" stroke="#323232" stroke-width="2" fill="none" marker-start="url(#SvgjsMarker1154)" marker-end="url(#SvgjsMarker1156)"></path></g><g id="SvgjsG1158"><path id="SvgjsPath1159" d="M287 273.5C 335 317 386 353 469 354.5" stroke="#323232" stroke-width="2" fill="none" marker-start="url(#SvgjsMarker1160)" marker-end="url(#SvgjsMarker1162)"></path></g><g id="SvgjsG1164"><path id="SvgjsPath1165" d="M287 273.5L469 354.5" stroke="#323232" stroke-width="2" fill="none" marker-start="url(#SvgjsMarker1166)" marker-end="url(#SvgjsMarker1168)"></path></g><g id="SvgjsG1170" transform="translate(25,195)"><path id="SvgjsPath1171" d="M 0 0L 72 0L 72 32L 0 32Z" stroke="#323232" stroke-width="2" fill-opacity="1" fill="#ffffff"></path><g id="SvgjsG1172"><text id="SvgjsText1173" font-family="微软雅黑" text-anchor="middle" font-size="13px" width="28" fill="#323232" font-weight="400" align="middle" anchor="middle" family="微软雅黑" size="13px" weight="400" font-style="" y="6.05" transform="rotate(0)"><tspan id="SvgjsTspan1174" dy="16" x="36"><tspan id="SvgjsTspan1175" style="text-decoration:;">User</tspan></tspan></text></g></g><g id="SvgjsG1176" transform="translate(25,259)"><path id="SvgjsPath1177" d="M 0 0L 72 0L 72 32L 0 32Z" stroke="#323232" stroke-width="2" fill-opacity="1" fill="#ffffff"></path><g id="SvgjsG1178"><text id="SvgjsText1179" font-family="微软雅黑" text-anchor="middle" font-size="13px" width="28" fill="#323232" font-weight="400" align="middle" anchor="middle" family="微软雅黑" size="13px" weight="400" font-style="" y="6.05" transform="rotate(0)"><tspan id="SvgjsTspan1180" dy="16" x="36"><tspan id="SvgjsTspan1181" style="text-decoration:;">User</tspan></tspan></text></g></g><g id="SvgjsG1182" transform="translate(25,332)"><path id="SvgjsPath1183" d="M 0 0L 72 0L 72 32L 0 32Z" stroke="#323232" stroke-width="2" fill-opacity="1" fill="#ffffff"></path><g id="SvgjsG1184"><text id="SvgjsText1185" font-family="微软雅黑" text-anchor="middle" font-size="13px" width="28" fill="#323232" font-weight="400" align="middle" anchor="middle" family="微软雅黑" size="13px" weight="400" font-style="" y="6.05" transform="rotate(0)"><tspan id="SvgjsTspan1186" dy="16" x="36"><tspan id="SvgjsTspan1187" style="text-decoration:;">User</tspan></tspan></text></g></g><g id="SvgjsG1188"><path id="SvgjsPath1189" d="M97 211L212 273.5" stroke="#323232" stroke-width="2" fill="none" marker-start="url(#SvgjsMarker1190)" marker-end="url(#SvgjsMarker1192)"></path></g><g id="SvgjsG1194"><path id="SvgjsPath1195" d="M97 275L212 273.5" stroke="#323232" stroke-width="2" fill="none" marker-start="url(#SvgjsMarker1196)" marker-end="url(#SvgjsMarker1198)"></path></g><g id="SvgjsG1200"><path id="SvgjsPath1201" d="M97 348L212 273.5" stroke="#323232" stroke-width="2" fill="none" marker-start="url(#SvgjsMarker1202)" marker-end="url(#SvgjsMarker1204)"></path></g></svg>